HIERARCHY
ROOT hip
{
	OFFSET 0.000000 0.000000 0.000000 
	CHANNELS 6 Xposition Yposition Zposition Xrotation Zrotation Yrotation
	JOINT abdomen
	{
		OFFSET 0.000000 3.402643 0.000000 
		CHANNELS 3 Xrotation Zrotation Yrotation
		JOINT chest
		{
			OFFSET 0.000000 8.438565 -0.680529 
			CHANNELS 3 Xrotation Zrotation Yrotation
			JOINT neck
			{
				OFFSET 0.000000 10.207942 -0.272212 
				CHANNELS 3 Xrotation Zrotation Yrotation
				JOINT head
				{
					OFFSET 0.000000 3.130431 0.000000 
					CHANNELS 3 Xrotation Zrotation Yrotation
					End Site
					{
						OFFSET 0.000000 3.130435 0.000000 
					}
				}
			}
			JOINT lCollar
			{
				OFFSET 3.470700 6.669187 -0.816635 
				CHANNELS 3 Yrotation Zrotation Xrotation
				JOINT lShldr
				{
					OFFSET 3.198488 0.000000 0.000000 
					CHANNELS 3 Zrotation Yrotation Xrotation
					JOINT lForeArm
					{
						OFFSET 10.139888 0.000000 0.000000 
						CHANNELS 3 Yrotation Zrotation Xrotation
						JOINT lHand
						{
							OFFSET 8.370511 0.000000 0.000000 
							CHANNELS 3 Zrotation Yrotation Xrotation
							End Site
							{
								OFFSET 4.083176 0.000000 0.000000 
							}
						}
					}
				}
			}
			JOINT rCollar
			{
				OFFSET -3.470700 6.669187 -0.816635 
				CHANNELS 3 Yrotation Zrotation Xrotation
				JOINT rShldr
				{
					OFFSET -3.198488 0.000000 0.000000 
					CHANNELS 3 Zrotation Yrotation Xrotation
					JOINT rForeArm
					{
						OFFSET -10.139888 0.000000 0.000000 
						CHANNELS 3 Yrotation Zrotation Xrotation
						JOINT rHand
						{
							OFFSET -8.370511 0.000000 0.000000 
							CHANNELS 3 Zrotation Yrotation Xrotation
							End Site
							{
								OFFSET -4.083176 0.000000 0.000000 
							}
						}
					}
				}
			}
		}
	}
	JOINT lThigh
	{
		OFFSET 5.308129 -1.633274 1.361059 
		CHANNELS 3 Xrotation Zrotation Yrotation
		JOINT lShin
		{
			OFFSET -2.041588 -20.007561 0.000000 
			CHANNELS 3 Xrotation Zrotation Yrotation
			JOINT lFoot
			{
				OFFSET 0.000000 -19.190928 -1.224953 
				CHANNELS 3 Xrotation Yrotation Zrotation
				End Site
				{
					OFFSET 0.000000 -2.449906 4.627600 
				}
			}
		}
	}
	JOINT rThigh
	{
		OFFSET -5.308129 -1.633274 1.361059 
		CHANNELS 3 Xrotation Zrotation Yrotation
		JOINT rShin
		{
			OFFSET 2.041588 -20.007561 0.000000 
			CHANNELS 3 Xrotation Zrotation Yrotation
			JOINT rFoot
			{
				OFFSET 0.000000 -19.190928 -1.224953 
				CHANNELS 3 Xrotation Yrotation Zrotation
				End Site
				{
					OFFSET 0.000000 -2.449906 4.627600 
				}
			}
		}
	}
}
MOTION
Frames: 15
Frame Time: 0.016667
-0.008160 44.067005 -0.417145 2.002430 -1.249240 5.395580 -23.357000 1.502340 -0.021667 17.996599 1.941420 0.255060 13.971500 1.042850 -2.112310 12.765500 4.760020 -0.417948 2.000000 -2.000000 0.000000 90.956802 176.759003 -0.701085 26.875299 -0.336798 0.061862 -179.923004 -179.903000 5.773640 -2.000000 2.000000 0.000000 84.702499 -4.885040 164.363007 -17.607599 0.345159 0.041359 -0.055137 0.015373 -142.419998 -6.747432 -4.262887 -20.742342 24.815395 3.108691 1.803694 -20.177454 19.854950 7.147208 2.226671 5.594915 18.436554 8.260961 -4.119286 -0.474859 -8.353901 -32.204636 -4.370390 
-0.025228 44.125523 -0.464111 2.002470 -1.307800 5.286100 -23.337299 1.491450 0.004797 17.977100 1.902370 0.265920 13.539100 1.225130 -2.345760 12.580300 4.830350 -0.550158 2.000000 -2.000000 0.000000 90.956802 176.817001 -0.183369 27.344101 -0.336289 0.062858 -179.921997 -179.901993 5.578330 -2.000000 2.000000 0.000000 84.722900 -4.771480 165.936005 -18.330299 0.344627 0.042999 -0.055476 0.018555 -143.561996 -6.597975 -4.104062 -20.683239 24.347345 3.138795 1.766348 -19.859991 19.959387 7.050683 1.457906 5.845476 18.519171 9.764734 -4.030841 -0.582835 -8.962241 -32.131561 -4.737982 
-0.044512 44.188412 -0.509252 2.012320 -1.395620 5.194890 -23.317900 1.523290 0.034085 17.957600 1.892580 0.275480 13.682000 1.177140 -2.450230 12.678000 4.809590 -0.603461 2.000000 -2.000000 0.000000 90.947098 176.884003 0.392965 27.793301 -0.335793 0.063808 -179.921997 -179.901993 5.256050 -2.000000 2.000000 0.000000 84.713898 -4.686920 167.371994 -19.150600 0.343998 0.044853 -0.055855 0.021566 -144.645996 -6.327588 -3.875510 -20.706768 23.616882 3.138311 1.725763 -19.476341 20.114584 6.950167 0.898734 6.008265 18.631580 10.851552 -3.825442 -0.691204 -9.334311 -32.034012 -5.107069 
-0.062043 44.224415 -0.553820 1.983100 -1.493250 5.094550 -23.278700 1.542140 0.111982 17.938101 1.863290 0.315234 14.037500 0.984815 -2.399500 12.862900 4.719970 -0.562317 2.000000 -2.000000 0.000000 90.956902 177.000000 0.979180 28.213200 -0.335322 0.064693 -179.921005 -179.901001 4.972840 -2.000000 2.000000 0.000000 84.734100 -4.601840 168.572998 -20.127199 0.343215 0.047047 -0.056250 0.024300 -145.632996 -6.123865 -3.693675 -20.769558 23.107494 3.171598 1.669584 -19.116964 20.322445 6.873102 0.620300 6.272788 18.735851 11.530869 -3.652038 -0.770803 -9.415161 -31.897083 -5.303992 
-0.074123 44.338737 -0.581052 1.963600 -1.542060 4.985960 -23.219200 1.534750 0.286545 17.948000 1.736480 0.399449 14.372800 0.709727 -2.210950 13.046800 4.572510 -0.453567 2.000000 -2.000000 0.000000 91.054604 177.184006 1.516730 28.613600 -0.334868 0.065533 -179.921005 -179.901001 4.884950 -2.000000 2.000000 0.000000 84.871101 -4.545140 169.384003 -21.201401 0.342310 0.049446 -0.056565 0.026271 -146.345993 -5.946277 -3.573753 -20.692978 22.656567 3.209596 1.623079 -18.709274 20.504927 6.757899 0.269430 6.196283 18.860304 11.917738 -3.460262 -0.820329 -7.808032 -31.889748 -4.658185 
-0.085627 44.344784 -0.626642 1.973410 -1.581090 4.867150 -23.169500 1.515620 0.402075 17.977501 1.638960 0.443790 14.396300 0.592148 -2.152810 13.085000 4.504430 -0.412358 2.000000 -2.000000 0.000000 91.113197 177.328995 1.966300 29.014000 -0.334407 0.066370 -179.921005 -179.899994 4.748240 -2.000000 2.000000 0.000000 84.939903 -4.459390 170.292007 -22.226801 0.341405 0.051719 -0.056890 0.028158 -147.029007 -5.911430 -3.474330 -20.462503 22.368223 3.221231 1.608529 -18.324793 20.620356 6.653643 0.010991 6.249382 18.760626 12.319142 -3.414383 -0.881257 -8.363410 -31.687901 -4.966835 
-0.098356 44.335911 -0.678109 1.983210 -1.620120 4.777640 -23.110600 1.508460 0.438372 17.997101 1.590210 0.466059 14.254400 0.618648 -2.224370 13.036200 4.514790 -0.453731 2.000000 -2.000000 0.000000 91.142601 177.397003 2.405910 29.404600 -0.333952 0.067184 -179.919998 -179.899994 4.494330 -2.000000 2.000000 0.000000 84.901199 -4.325270 171.395996 -23.193600 0.340515 0.053847 -0.057320 0.030470 -147.869003 -5.860824 -3.364620 -20.282784 22.060175 3.228900 1.583650 -18.009197 20.597361 6.527070 -0.058836 6.531877 21.057043 12.633825 -3.375881 -0.894401 -8.685811 -33.724140 -5.439675 
-0.111936 44.341316 -0.728275 1.944140 -1.620160 4.729910 -23.071400 1.487390 0.437668 17.958000 1.560890 0.456537 14.131400 0.635990 -2.287200 13.016700 4.524720 -0.483043 2.000000 -2.000000 0.000000 91.171898 177.406006 2.757940 29.775700 -0.333515 0.067954 -179.919998 -179.899002 4.279490 -2.000000 2.000000 0.000000 -95.147301 -175.837997 -7.578300 -24.111601 0.339636 0.055853 -0.057728 0.032508 -148.610992 -5.855421 -3.290398 -20.078854 22.013371 3.213562 1.591619 -17.883137 20.470253 6.446741 -0.081441 6.524989 20.897821 12.611506 -3.382290 -0.885584 -8.491884 -33.569511 -5.296654 
-0.126800 44.347614 -0.769236 1.836680 -1.630020 4.674040 -23.003401 1.485380 0.376536 17.928600 1.609630 0.424205 13.901300 0.749238 -2.488600 12.949200 4.593240 -0.595052 2.000000 -2.000000 0.000000 91.152397 177.384995 2.982500 30.156601 -0.333061 0.068741 -179.919998 -179.899002 4.093940 -2.000000 2.000000 0.000000 -95.254501 -176.011993 -6.620850 -24.971001 0.338784 0.057719 -0.058051 0.034033 -149.167999 -5.861954 -3.242044 -19.814404 22.138481 3.233390 1.583616 -17.872808 20.297985 6.365839 -0.029824 6.484123 20.131876 12.516657 -3.396767 -0.887589 -8.361128 -32.811794 -5.121928 
-0.137647 44.355579 -0.806820 1.709720 -1.678940 4.598060 -22.935301 1.506090 0.348222 17.889601 1.619340 0.412888 13.652600 0.881407 -2.697530 12.852200 4.662210 -0.708811 2.000000 -2.000000 0.000000 91.171997 177.354996 3.265640 30.498400 -0.332649 0.069445 -179.919006 -179.899002 3.879100 -2.000000 2.000000 0.000000 -95.351898 -176.166000 -5.790400 -25.771799 0.337966 0.059445 -0.058353 0.035394 -149.666000 -5.795862 -3.144072 -19.607059 22.186464 3.243120 1.584889 -17.872377 20.191492 6.325810 0.087085 6.489830 19.748075 12.354219 -3.397117 -0.879625 -8.146682 -32.363163 -4.936253 
-0.147392 44.363297 -0.849228 1.631580 -1.708290 4.570220 -22.925301 1.468900 0.332397 17.791901 1.560680 0.403187 13.513600 0.830492 -2.529320 12.783300 4.643910 -0.629445 2.000000 -2.000000 0.000000 91.269600 177.296005 3.470590 30.713200 -0.332388 0.069886 -179.919006 -179.897995 3.800970 -2.000000 2.000000 0.000000 -95.342003 -176.300995 -5.116250 -26.435801 0.337269 0.060868 -0.058598 0.036460 -150.057007 -5.789547 -3.083336 -19.412716 22.214670 3.253187 1.586410 -17.793390 19.996910 6.228584 0.161023 6.471457 19.416239 12.182535 -3.392137 -0.860898 -7.893965 -31.983822 -4.732645 
-0.161621 44.367027 -0.890012 1.602300 -1.737600 4.560500 -22.934601 1.408000 0.336732 17.713900 1.482550 0.385400 13.378000 0.898878 -2.533850 12.715000 4.664210 -0.622269 2.000000 -2.000000 0.000000 91.386803 177.257004 3.548630 30.791300 -0.332293 0.070046 -179.919006 -179.899002 3.947460 -2.000000 2.000000 0.000000 -95.283401 -176.427002 -4.617900 -26.982700 0.336682 0.062034 -0.058754 0.037126 -150.300995 -5.834691 -3.008987 -19.202780 22.213287 3.265987 1.598577 -17.674374 19.818172 6.107419 0.205215 6.487571 19.316074 11.983400 -3.410772 -0.835178 -7.644495 -31.837847 -4.559493 
-0.175052 44.375645 -0.924545 1.582810 -1.796190 4.579000 -22.924601 1.393520 0.353669 17.674900 1.404470 0.398080 13.269300 1.138740 -2.909320 12.677100 4.751670 -0.817332 2.000000 -2.000000 0.000000 91.464996 177.246994 3.675560 30.801100 -0.332281 0.070066 -179.919998 -179.899002 4.181830 -2.000000 2.000000 0.000000 -95.263802 -176.563004 -4.305080 -27.471001 0.336149 0.063070 -0.058863 0.037578 -150.466995 -5.900932 -2.914509 -19.078579 22.203632 3.258735 1.577854 -17.540596 19.686581 6.060530 0.214140 6.502916 18.819506 11.796690 -3.388729 -0.834376 -7.450054 -31.347965 -4.420772 
-0.181668 44.391594 -0.948933 1.582800 -1.786430 4.598800 -22.914400 1.380330 0.401832 17.665199 1.365450 0.409576 13.279100 1.251780 -3.179810 12.697300 4.789990 -0.956324 2.000000 -2.000000 0.000000 91.533401 177.237000 3.929440 30.771799 -0.332317 0.070006 -179.919998 -179.899994 4.328310 -2.000000 2.000000 0.000000 -95.293098 -176.679993 -4.060660 -27.949499 0.335618 0.064081 -0.059018 0.038215 -150.701004 -5.871426 -2.902643 -19.072006 22.132740 3.268912 1.570780 -17.493679 19.687168 6.017091 0.176973 6.317946 17.273470 11.601424 -3.357841 -0.813946 -7.230362 -29.885015 -4.162168 
-0.183893 44.395832 -0.969131 1.592550 -1.757130 4.589550 -22.903999 1.362860 0.494161 17.665300 1.297180 0.452085 13.326300 1.280550 -3.293660 12.726500 4.779910 -1.013940 2.000000 -2.000000 0.000000 91.631104 177.225998 4.154030 30.674200 -0.332436 0.069806 -179.919998 -179.899994 4.416210 -2.000000 2.000000 0.000000 -95.283302 -176.727997 -3.865230 -28.408501 0.335101 0.065046 -0.059215 0.039012 -150.994003 -5.852993 -2.893128 -19.054409 22.016741 3.251626 1.568844 -17.403099 19.696396 6.015471 0.180843 6.248168 17.084341 11.492381 -3.348139 -0.814221 -7.035498 -29.709772 -4.053779 
